<svg width="62" height="88" viewBox="0 0 62 88" fill="none" xmlns="http://www.w3.org/2000/svg">
<g clip-path="url(#clip0_17_4832)">
<mask id="mask0_17_4832" style="mask-type:alpha" maskUnits="userSpaceOnUse" x="-27" y="-42" width="116" height="172">
<rect x="-27" y="-41.9258" width="116" height="171.852" rx="6" fill="#D9D9D9"/>
</mask>
<g mask="url(#mask0_17_4832)">
<rect x="-35.25" y="-51.7407" width="131.455" height="188.259" rx="4" fill="#3C55BD" stroke="white" stroke-width="4"/>
<line opacity="0.5" x1="27.1539" y1="-69.9023" x2="-68.9757" y2="96.5991" stroke="#8F9FE7" stroke-width="4"/>
<line opacity="0.5" x1="155.332" y1="16.5035" x2="-11.1694" y2="-79.6261" stroke="#4461D7" stroke-width="4"/>
<line opacity="0.5" x1="89.7891" y1="130.027" x2="-76.7123" y2="33.8973" stroke="#4461D7" stroke-width="4"/>
<line opacity="0.5" x1="36.6149" y1="-64.4404" x2="-59.5148" y2="102.061" stroke="#8F9FE7" stroke-width="4"/>
<line opacity="0.5" x1="149.871" y1="25.9635" x2="-16.6303" y2="-70.1661" stroke="#4461D7" stroke-width="4"/>
<line opacity="0.5" x1="84.3281" y1="139.487" x2="-82.1733" y2="43.3578" stroke="#4461D7" stroke-width="4"/>
<line opacity="0.5" x1="46.0719" y1="-58.9785" x2="-50.0577" y2="107.523" stroke="#8F9FE7" stroke-width="4"/>
<line opacity="0.5" x1="144.41" y1="35.4239" x2="-22.0912" y2="-60.7057" stroke="#4461D7" stroke-width="4"/>
<line opacity="0.5" x1="78.8672" y1="148.947" x2="-87.6342" y2="52.8177" stroke="#4461D7" stroke-width="4"/>
<line opacity="0.5" x1="55.5328" y1="-53.5166" x2="-40.5968" y2="112.985" stroke="#8F9FE7" stroke-width="4"/>
<line opacity="0.5" x1="138.949" y1="44.8844" x2="-27.5522" y2="-51.2452" stroke="#4461D7" stroke-width="4"/>
<line opacity="0.5" x1="73.4062" y1="158.408" x2="-93.0952" y2="62.2782" stroke="#4461D7" stroke-width="4"/>
<line opacity="0.5" x1="64.9938" y1="-48.0547" x2="-31.1359" y2="118.447" stroke="#8F9FE7" stroke-width="4"/>
<line opacity="0.5" x1="133.484" y1="54.3444" x2="-33.017" y2="-41.7853" stroke="#4461D7" stroke-width="4"/>
<line opacity="0.5" x1="67.9414" y1="167.868" x2="-98.56" y2="71.7386" stroke="#4461D7" stroke-width="4"/>
<line opacity="0.5" x1="74.4547" y1="-42.5928" x2="-21.6749" y2="123.909" stroke="#8F9FE7" stroke-width="4"/>
<line opacity="0.5" x1="128.023" y1="63.8048" x2="-38.478" y2="-32.3248" stroke="#4461D7" stroke-width="4"/>
<line opacity="0.5" x1="83.9156" y1="-37.1309" x2="-12.214" y2="129.371" stroke="#8F9FE7" stroke-width="4"/>
<line opacity="0.5" x1="122.562" y1="73.2653" x2="-43.9389" y2="-22.8644" stroke="#4461D7" stroke-width="4"/>
<line opacity="0.5" x1="93.3766" y1="-31.6689" x2="-2.75305" y2="134.832" stroke="#8F9FE7" stroke-width="4"/>
<line opacity="0.5" x1="117.102" y1="82.7252" x2="-49.3998" y2="-13.4044" stroke="#4461D7" stroke-width="4"/>
<line opacity="0.5" x1="102.834" y1="-26.207" x2="6.70398" y2="140.294" stroke="#8F9FE7" stroke-width="4"/>
<line opacity="0.5" x1="111.637" y1="92.1857" x2="-54.8647" y2="-3.94398" stroke="#4461D7" stroke-width="4"/>
<line opacity="0.5" x1="112.295" y1="-20.7451" x2="16.1649" y2="145.756" stroke="#8F9FE7" stroke-width="4"/>
<line opacity="0.5" x1="106.176" y1="101.646" x2="-60.3256" y2="5.51647" stroke="#4461D7" stroke-width="4"/>
<line opacity="0.5" x1="121.755" y1="-15.2837" x2="25.6259" y2="151.218" stroke="#8F9FE7" stroke-width="4"/>
<line opacity="0.5" x1="100.715" y1="111.107" x2="-65.7866" y2="14.9769" stroke="#4461D7" stroke-width="4"/>
<line opacity="0.5" x1="131.216" y1="-9.82129" x2="35.0868" y2="156.68" stroke="#8F9FE7" stroke-width="4"/>
<line opacity="0.5" x1="95.2539" y1="120.567" x2="-71.2475" y2="24.4369" stroke="#4461D7" stroke-width="4"/>
</g>
</g>
<defs>
<clipPath id="clip0_17_4832">
<rect width="62" height="88" rx="6" fill="white"/>
</clipPath>
</defs>
</svg>
