<svg width="146" height="34" viewBox="0 0 146 34" fill="none" xmlns="http://www.w3.org/2000/svg">
<g clip-path="url(#clip0_155_9625)">
<path d="M2 10.5C1.38713 10.8064 1 11.4328 1 12.118V26C1 27.6569 2.34315 29 4 29H12.882C13.5672 29 14.1936 28.6129 14.5 28" stroke="#0B0F1F" stroke-width="2" stroke-linecap="round"/>
<path d="M16 7H7C5.89543 7 5 7.89543 5 9V23C5 24.1046 5.89543 25 7 25H16C17.1046 25 18 24.1046 18 23V9C18 7.89543 17.1046 7 16 7Z" stroke="#0B0F1F" stroke-width="2"/>
<path d="M11.5 22C12.3284 22 13 21.3284 13 20.5C13 19.6716 12.3284 19 11.5 19C10.6716 19 10 19.6716 10 20.5C10 21.3284 10.6716 22 11.5 22Z" fill="#FF22B1"/>
<path d="M24.1121 27.1356C24.1121 27.7116 24.4001 27.9996 24.9761 27.9996H25.4561C26.0321 27.9996 26.3201 27.7116 26.3201 27.1356V22.2396H30.3521C34.1201 22.2396 36.2081 19.8636 36.2081 16.7676C36.2081 13.6716 34.1201 11.4876 30.3521 11.4876H24.9761C24.4001 11.4876 24.1121 11.7756 24.1121 12.3516V27.1356ZM26.3201 20.3196V13.4076H30.4481C32.8481 13.4076 34.0001 14.8476 34.0001 16.7676C34.0001 18.6876 32.8481 20.3196 30.4481 20.3196H26.3201ZM38.8944 27.1356C38.8944 27.7116 39.1824 27.9996 39.7584 27.9996H40.1424C40.7184 27.9996 41.0064 27.7116 41.0064 27.1356V11.2956C41.0064 10.7196 40.7184 10.4316 40.1424 10.4316H39.7584C39.1824 10.4316 38.8944 10.7196 38.8944 11.2956V27.1356ZM43.988 25.0236C43.988 26.9916 45.428 28.2876 47.924 28.2876C49.628 28.2876 50.996 27.6636 51.668 26.4396H51.764V27.1836C51.764 27.7356 52.028 27.9996 52.58 27.9996H52.964C53.516 27.9996 53.78 27.7356 53.78 27.1836V20.1276C53.78 17.5356 52.244 15.9996 49.172 15.9996C46.844 15.9996 45.164 17.1996 44.636 18.9276C44.492 19.4076 44.588 19.9356 45.236 19.9356H45.572C46.22 19.9356 46.412 19.5756 46.58 19.2636C47.012 18.5196 47.42 17.7276 49.172 17.7276C50.828 17.7276 51.668 18.6156 51.668 20.1276C51.668 20.6796 51.38 20.8236 50.132 21.0396L47.828 21.4236C45.092 21.9036 43.988 23.0796 43.988 25.0236ZM46.1 24.8316C46.1 23.8236 46.676 23.1756 48.212 22.9116L50.42 22.5276C50.996 22.4316 51.428 22.2636 51.668 21.9756V23.1036C51.668 25.4076 50.132 26.5596 48.308 26.5596C46.82 26.5596 46.1 25.8396 46.1 24.8316ZM57.246 27.1356C57.246 27.7116 57.534 27.9996 58.11 27.9996H58.494C59.07 27.9996 59.358 27.7116 59.358 27.1356V21.9516C59.358 19.4556 60.702 17.8236 62.526 17.8236C64.158 17.8236 65.214 18.6876 65.214 21.1836V27.1356C65.214 27.7116 65.502 27.9996 66.078 27.9996H66.462C67.038 27.9996 67.326 27.7116 67.326 27.1356V20.8956C67.326 17.2476 65.31 15.9996 63.006 15.9996C61.278 15.9996 60.03 16.6716 59.358 18.0156H59.262V17.1036C59.262 16.5516 58.998 16.2876 58.446 16.2876H58.062C57.51 16.2876 57.246 16.5516 57.246 17.1036V27.1356ZM70.7929 27.1356C70.7929 27.7116 71.0809 27.9996 71.6569 27.9996H72.0409C72.6169 27.9996 72.9049 27.7116 72.9049 27.1356V21.9516C72.9049 19.4556 74.2489 17.8236 76.0729 17.8236C77.7049 17.8236 78.7609 18.6876 78.7609 21.1836V27.1356C78.7609 27.7116 79.0489 27.9996 79.6249 27.9996H80.0089C80.5849 27.9996 80.8729 27.7116 80.8729 27.1356V20.8956C80.8729 17.2476 78.8569 15.9996 76.5529 15.9996C74.8249 15.9996 73.5769 16.6716 72.9049 18.0156H72.8089V17.1036C72.8089 16.5516 72.5449 16.2876 71.9929 16.2876H71.6089C71.0569 16.2876 70.7929 16.5516 70.7929 17.1036V27.1356ZM85.1077 12.8316H85.6837C86.2597 12.8316 86.5477 12.5436 86.5477 11.9676V11.2956C86.5477 10.7196 86.2597 10.4316 85.6837 10.4316H85.1077C84.5317 10.4316 84.2437 10.7196 84.2437 11.2956V11.9676C84.2437 12.5436 84.5317 12.8316 85.1077 12.8316ZM84.3397 27.1356C84.3397 27.7116 84.6277 27.9996 85.2037 27.9996H85.5877C86.1637 27.9996 86.4517 27.7116 86.4517 27.1356V17.1516C86.4517 16.5756 86.1637 16.2876 85.5877 16.2876H85.2037C84.6277 16.2876 84.3397 16.5756 84.3397 17.1516V27.1356ZM90.1054 27.1356C90.1054 27.7116 90.3934 27.9996 90.9694 27.9996H91.3534C91.9294 27.9996 92.2174 27.7116 92.2174 27.1356V21.9516C92.2174 19.4556 93.5614 17.8236 95.3854 17.8236C97.0174 17.8236 98.0734 18.6876 98.0734 21.1836V27.1356C98.0734 27.7116 98.3614 27.9996 98.9374 27.9996H99.3214C99.8974 27.9996 100.185 27.7116 100.185 27.1356V20.8956C100.185 17.2476 98.1694 15.9996 95.8654 15.9996C94.1374 15.9996 92.8894 16.6716 92.2174 18.0156H92.1214V17.1036C92.1214 16.5516 91.8574 16.2876 91.3054 16.2876H90.9214C90.3694 16.2876 90.1054 16.5516 90.1054 17.1036V27.1356ZM103.796 29.4396C103.244 29.4396 103.052 29.9436 103.196 30.4236C103.82 32.4636 105.716 33.4716 108.26 33.4716C111.38 33.4716 114.02 31.8636 114.02 27.4236V17.1036C114.02 16.5516 113.756 16.2876 113.204 16.2876H112.82C112.268 16.2876 112.004 16.5516 112.004 17.1036V18.1116H111.908C111.14 16.5756 109.796 15.9996 108.164 15.9996C105.188 15.9996 102.788 18.3996 102.788 22.2396C102.788 26.0796 104.996 28.2876 107.972 28.2876C109.604 28.2876 111.14 27.7116 111.908 26.1756H112.004V27.4236C112.004 30.7116 110.324 31.7436 108.26 31.7436C106.484 31.7436 105.716 31.1436 105.164 29.9916C104.948 29.5356 104.708 29.4396 104.276 29.4396H103.796ZM104.996 22.2396C104.996 19.4556 106.532 17.8236 108.452 17.8236C110.372 17.8236 111.908 19.3596 111.908 22.1436C111.908 24.9276 110.372 26.4636 108.452 26.4636C106.532 26.4636 104.996 25.0236 104.996 22.2396Z" fill="#0B0F1F"/>
<path d="M9.58824 12.818L9.58865 12.8159C9.65884 12.4274 9.84522 12.0577 10.1622 11.7853C10.4783 11.5137 10.9328 11.3313 11.5534 11.3313C12.6547 11.3313 13.3505 12.0314 13.3505 12.9206C13.3505 13.5181 13.0508 13.9137 12.605 14.2493L12.6036 14.2503L12.1728 14.5837C12.1614 14.5925 12.15 14.6014 12.1385 14.6102C11.7615 14.9021 11.3558 15.2161 11.0444 15.6426C10.7201 16.0867 10.5005 16.6483 10.5005 17.4286V17.4762C10.5005 17.6715 10.5517 17.8405 10.6757 17.9593C10.7987 18.0771 10.9721 18.125 11.1723 18.125H11.5368C11.737 18.125 11.9104 18.0771 12.0334 17.9593C12.1574 17.8405 12.2086 17.6715 12.2086 17.4762V17.3651C12.2086 16.5887 12.6745 16.1618 13.2543 15.7016L13.6835 15.3695C13.6834 15.3696 13.6837 15.3694 13.6835 15.3695C14.0407 15.0989 14.4032 14.8027 14.6742 14.4081C14.9477 14.0098 15.1249 13.5168 15.1249 12.8571C15.1249 11.9388 14.7477 11.1887 14.1071 10.6707C13.469 10.1547 12.5775 9.875 11.5534 9.875C10.3929 9.875 9.52493 10.2164 8.92051 10.756C8.31721 11.2945 7.98663 12.0216 7.88375 12.776C7.85496 12.9703 7.89649 13.1413 8.01939 13.2619C8.13854 13.3787 8.31269 13.4266 8.50459 13.4266H8.83599C9.03082 13.4266 9.20177 13.3775 9.33499 13.2699C9.46846 13.1621 9.55081 13.0063 9.58824 12.818Z" fill="#0B0F1F"/>
<path d="M13.6835 15.3695L13.2543 15.7016C12.6745 16.1618 12.2086 16.5887 12.2086 17.3651V17.4762C12.2086 17.6715 12.1574 17.8405 12.0334 17.9593C11.9104 18.0771 11.737 18.125 11.5368 18.125H11.1723C10.9721 18.125 10.7987 18.0771 10.6757 17.9593C10.5517 17.8405 10.5005 17.6715 10.5005 17.4762V17.4286C10.5005 16.6483 10.7201 16.0867 11.0444 15.6426C11.3558 15.2161 11.7615 14.9021 12.1385 14.6102C12.15 14.6014 12.1614 14.5925 12.1728 14.5837L12.6036 14.2503L12.605 14.2493C13.0508 13.9137 13.3505 13.5181 13.3505 12.9206C13.3505 12.0314 12.6547 11.3313 11.5534 11.3313C10.9328 11.3313 10.4783 11.5137 10.1622 11.7853C9.84522 12.0577 9.65884 12.4274 9.58865 12.8159L9.58824 12.818C9.55081 13.0063 9.46846 13.1621 9.33499 13.2699C9.20177 13.3775 9.03082 13.4266 8.83599 13.4266H8.50459C8.31269 13.4266 8.13854 13.3787 8.01939 13.2619C7.89649 13.1413 7.85496 12.9703 7.88375 12.776C7.98663 12.0216 8.31721 11.2945 8.92051 10.756C9.52493 10.2164 10.3929 9.875 11.5534 9.875C12.5775 9.875 13.469 10.1547 14.1071 10.6707C14.7477 11.1887 15.1249 11.9388 15.1249 12.8571C15.1249 13.5168 14.9477 14.0098 14.6742 14.4081C14.4032 14.8027 14.0407 15.0989 13.6835 15.3695ZM13.6835 15.3695C13.6837 15.3694 13.6834 15.3696 13.6835 15.3695Z" stroke="black" stroke-width="0.25"/>
<path fill-rule="evenodd" clip-rule="evenodd" d="M64.292 3.5632L65.7239 4.97701C65.8844 5.10249 65.9877 5.28729 66.0106 5.48979C66.0061 5.78082 65.7708 6.01543 65.4798 6.01894C65.2499 6.01894 65.089 5.85784 64.9304 5.69897L64.9146 5.6831L64.8326 5.59791L63.2534 3.95966V5.43409C63.2534 5.76433 62.9857 6.03205 62.6554 6.03205C62.3252 6.03205 62.0574 5.76433 62.0574 5.43409V0.597962C62.0574 0.267717 62.3252 0 62.6554 0C62.9857 0 63.2534 0.267717 63.2534 0.597962V3.075L64.831 1.43675L64.8334 1.43418C64.9997 1.25477 65.1713 1.06978 65.4126 1.06978C65.5578 1.06662 65.698 1.1229 65.8007 1.2256C65.9034 1.32829 65.9597 1.46848 65.9565 1.61368C65.9565 1.85286 65.7845 2.02488 65.6026 2.20673L64.292 3.5632ZM25.1984 2.24932L25.9651 2.25096C26.3108 2.25096 26.509 2.06256 26.509 1.73491C26.5165 1.59355 26.4627 1.45582 26.3613 1.35698C26.26 1.25814 26.121 1.20781 25.9798 1.21886H25.1951V0.63728C25.2067 0.416479 25.0955 0.207314 24.9059 0.0934373C24.7164 -0.0204392 24.4795 -0.0204392 24.29 0.0934373C24.1005 0.207314 23.9893 0.416479 24.0008 0.63728V4.63789C24.0008 5.59955 24.3842 6.02877 25.2443 6.02877C25.5702 6.04138 25.8928 5.95945 26.1731 5.79286C26.3086 5.70543 26.3872 5.55251 26.3796 5.39149C26.3796 5.13429 26.2075 4.84759 25.9602 4.84759C25.9239 4.84745 25.8879 4.85354 25.8537 4.86561L25.8111 4.88527C25.7228 4.9304 25.6252 4.9545 25.526 4.95572C25.372 4.95572 25.1984 4.90165 25.1984 4.47735V2.24932ZM31.5892 4.68868C31.5374 4.46924 31.3429 4.31322 31.1174 4.31024C30.994 4.31201 30.8749 4.35594 30.7799 4.43475L30.7619 4.4495C30.5475 4.63846 30.2989 4.78471 30.0296 4.88036C29.8321 4.95501 29.6231 4.99438 29.412 4.99667C28.9085 5.00341 28.4485 4.71238 28.239 4.25454L30.9847 3.25521C31.4172 3.09138 31.4762 2.77848 31.3861 2.5311C31.0945 1.63929 30.2634 1.03541 29.3251 1.03374C29.0028 1.03679 28.6835 1.09611 28.3815 1.20903C27.7258 1.42079 27.1958 1.9094 26.9317 2.54585C26.7104 3.14516 26.7157 3.80463 26.9464 4.40035C27.3199 5.42917 28.1161 6.01894 29.1302 6.01894C29.3312 6.01816 29.5315 5.99675 29.7282 5.95505C29.9068 5.91819 30.0826 5.86836 30.254 5.80597C30.6968 5.64911 31.1071 5.41258 31.4647 5.10807C31.5714 4.99655 31.6178 4.84038 31.5892 4.68868ZM28.7272 2.08713V2.08877C28.1477 2.26736 27.8104 2.86924 27.9605 3.45671L30.1901 2.64578C29.9965 2.26049 29.6056 2.01395 29.1744 2.00522C29.0218 2.00672 28.8705 2.03443 28.7272 2.08713ZM36.772 1.23932C36.6626 1.12424 36.5086 1.06238 36.35 1.06978C36.1881 1.06247 36.0304 1.12267 35.9146 1.23603C35.7987 1.34938 35.7351 1.50572 35.7389 1.66774V1.68904C35.3566 1.27662 34.8133 1.05165 34.2514 1.07306C32.8654 1.07306 31.9332 2.07075 31.9332 3.55337C31.9332 5.03599 32.849 6.03369 34.2121 6.03369C34.8788 6.03369 35.4244 5.79122 35.7668 5.34562V5.43736C35.7525 5.59714 35.8089 5.75515 35.921 5.86983C36.0332 5.98451 36.1899 6.04438 36.35 6.03369C36.5084 6.04265 36.6629 5.98174 36.7726 5.86702C36.8823 5.75229 36.9362 5.59527 36.9201 5.43736V1.66938C36.9355 1.51133 36.8814 1.3544 36.772 1.23932ZM35.7258 3.55009C35.7258 2.57861 35.0869 2.14447 34.4529 2.14447C33.6845 2.14447 33.1685 2.72933 33.1685 3.5632C33.1685 4.39707 33.6796 4.95735 34.4398 4.95735C35.3277 4.95735 35.7258 4.25127 35.7258 3.55009ZM45.0884 3.33548C45.0884 1.83157 44.4577 1.06978 43.2143 1.06978C42.5114 1.06978 41.9692 1.38105 41.7054 1.92822C41.4155 1.3663 40.8863 1.06978 40.1868 1.06978C39.7013 1.05407 39.2346 1.25738 38.9155 1.62351C38.9126 1.46976 38.8472 1.32381 38.7344 1.21932C38.6216 1.11484 38.471 1.06084 38.3175 1.06978C38.152 1.06252 37.9912 1.12578 37.875 1.24384C37.7589 1.3619 37.6982 1.52369 37.7081 1.68904V5.42917C37.6889 5.59245 37.7456 5.75552 37.8618 5.87177C37.9781 5.98802 38.1411 6.04466 38.3044 6.0255C38.4685 6.04256 38.6317 5.98579 38.7497 5.87058C38.8678 5.75536 38.9285 5.59362 38.9155 5.42917V3.20115C38.9155 2.46393 39.2431 2.09041 39.8984 2.09041C40.5537 2.09041 40.7946 2.44264 40.7946 3.30763V5.41934C40.7946 5.81416 41.0059 6.03041 41.3909 6.03041C41.5576 6.04756 41.7232 5.98871 41.8417 5.87019C41.9602 5.75167 42.0191 5.58608 42.0019 5.41934V3.33548C42.0019 2.4967 42.3296 2.09041 42.9849 2.09041C43.6124 2.09041 43.881 2.46229 43.881 3.33548V5.41934C43.881 5.81416 44.0924 6.03041 44.4773 6.03041C44.6441 6.04756 44.8097 5.98871 44.9282 5.87019C45.0467 5.75167 45.1056 5.58608 45.0884 5.41934V3.33548ZM52.3705 1.06978C52.5132 1.07309 52.6485 1.13429 52.7452 1.23934C52.8419 1.34439 52.8917 1.48425 52.8832 1.62679C52.8807 1.75179 52.8511 1.87477 52.7964 1.9872L51.4399 5.4947C51.2974 5.8502 51.0811 6.03041 50.7519 6.03041C50.4226 6.03041 50.1965 5.8502 50.0769 5.49306L49.1775 2.97179L48.2519 5.4947C48.1667 5.74372 48.0094 6.03041 47.5966 6.03041C47.2181 6.03041 47.0543 5.82399 46.9233 5.49634L45.5504 1.99867C45.498 1.88146 45.4691 1.75512 45.4652 1.62679C45.4586 1.48389 45.5097 1.34433 45.6071 1.23955C45.7045 1.13477 45.8399 1.07359 45.9829 1.06978C46.2483 1.06978 46.4695 1.26145 46.576 1.58091L47.5966 4.46096L48.6025 1.59402C48.7155 1.2549 48.8646 1.06978 49.184 1.06978C49.5035 1.06978 49.6411 1.27948 49.7509 1.59402L50.7568 4.46096L51.7774 1.58091C51.879 1.26145 52.1051 1.06978 52.3705 1.06978ZM57.9422 3.55009C57.9422 2.40496 57.2852 1.08452 55.4487 1.08452C54.6656 1.08452 54.0169 1.34173 53.5729 1.82829C52.7491 2.83144 52.7491 4.27694 53.5729 5.28009C54.0169 5.77157 54.6656 6.03041 55.4487 6.03041C57.2901 6.03041 57.9422 4.69523 57.9422 3.55009ZM55.4487 5.07858C56.2302 5.07858 56.7348 4.46096 56.7348 3.55009C56.7348 2.63923 56.2302 2.04945 55.4487 2.04945C54.6673 2.04945 54.1627 2.63923 54.1627 3.55009C54.1627 4.49209 54.6558 5.07858 55.4487 5.07858ZM61.5316 1.62679C61.5447 1.28931 61.2711 1.06978 60.8599 1.06978C60.3966 1.06756 59.9555 1.26806 59.6525 1.61859C59.6201 1.3043 59.3488 1.06945 59.0331 1.08246C58.7174 1.09547 58.4663 1.35184 58.4598 1.66774V5.43572C58.4598 5.76597 58.7276 6.03369 59.0578 6.03369C59.388 6.03369 59.6558 5.76597 59.6558 5.43572V3.64511C59.6558 2.56387 59.9506 2.10352 60.6387 2.10352C60.7183 2.1029 60.7976 2.11282 60.8746 2.13301C60.9336 2.14804 60.994 2.15628 61.0548 2.15758C61.191 2.15793 61.321 2.1002 61.412 1.99886C61.503 1.89752 61.5465 1.76218 61.5316 1.62679ZM68.7923 4.9852C68.7923 4.40614 68.3229 3.93672 67.7438 3.93672C67.1648 3.93672 66.6953 4.40614 66.6953 4.9852C66.6953 5.56427 67.1648 6.03369 67.7438 6.03369C68.3229 6.03369 68.7923 5.56427 68.7923 4.9852Z" fill="#1D1C39"/>
</g>
<path d="M124.705 10V4.18182H126.739C127.144 4.18182 127.478 4.25189 127.741 4.39205C128.005 4.5303 128.201 4.71686 128.33 4.9517C128.458 5.18466 128.523 5.44318 128.523 5.72727C128.523 5.97727 128.478 6.18371 128.389 6.34659C128.302 6.50947 128.187 6.63826 128.043 6.73295C127.901 6.82765 127.746 6.89773 127.58 6.94318V7C127.758 7.01136 127.937 7.07386 128.116 7.1875C128.296 7.30114 128.447 7.46402 128.568 7.67614C128.689 7.88826 128.75 8.14773 128.75 8.45455C128.75 8.74621 128.684 9.00852 128.551 9.24148C128.419 9.47443 128.209 9.65909 127.923 9.79545C127.637 9.93182 127.265 10 126.807 10H124.705ZM125.409 9.375H126.807C127.267 9.375 127.594 9.28598 127.787 9.10795C127.982 8.92803 128.08 8.71023 128.08 8.45455C128.08 8.25758 128.029 8.07576 127.929 7.90909C127.829 7.74053 127.686 7.60606 127.5 7.50568C127.314 7.40341 127.095 7.35227 126.841 7.35227H125.409V9.375ZM125.409 6.73864H126.716C126.928 6.73864 127.119 6.69697 127.29 6.61364C127.462 6.5303 127.598 6.41288 127.699 6.26136C127.801 6.10985 127.852 5.93182 127.852 5.72727C127.852 5.47159 127.763 5.25473 127.585 5.0767C127.407 4.89678 127.125 4.80682 126.739 4.80682H125.409V6.73864ZM131.646 10.0909C131.226 10.0909 130.863 9.99811 130.558 9.8125C130.255 9.625 130.021 9.36364 129.857 9.02841C129.694 8.69129 129.612 8.29924 129.612 7.85227C129.612 7.4053 129.694 7.01136 129.857 6.67045C130.021 6.32765 130.25 6.06061 130.544 5.86932C130.839 5.67614 131.184 5.57955 131.578 5.57955C131.805 5.57955 132.03 5.61742 132.251 5.69318C132.473 5.76894 132.675 5.89205 132.857 6.0625C133.038 6.23106 133.183 6.45455 133.291 6.73295C133.399 7.01136 133.453 7.35417 133.453 7.76136V8.04545H130.089V7.46591H132.771C132.771 7.2197 132.722 7 132.624 6.80682C132.527 6.61364 132.389 6.46117 132.209 6.34943C132.031 6.23769 131.821 6.18182 131.578 6.18182C131.311 6.18182 131.08 6.24811 130.885 6.38068C130.692 6.51136 130.543 6.68182 130.439 6.89205C130.335 7.10227 130.283 7.32765 130.283 7.56818V7.95455C130.283 8.28409 130.339 8.56345 130.453 8.79261C130.569 9.01989 130.729 9.19318 130.933 9.3125C131.138 9.42992 131.375 9.48864 131.646 9.48864C131.822 9.48864 131.982 9.46402 132.124 9.41477C132.268 9.36364 132.392 9.28788 132.496 9.1875C132.6 9.08523 132.68 8.95833 132.737 8.80682L133.385 8.98864C133.317 9.20833 133.202 9.40152 133.041 9.56818C132.88 9.73295 132.681 9.86174 132.445 9.95455C132.208 10.0455 131.942 10.0909 131.646 10.0909ZM136.371 5.63636V6.20455H134.109V5.63636H136.371ZM134.768 4.59091H135.439V8.75C135.439 8.93939 135.466 9.08144 135.521 9.17614C135.578 9.26894 135.65 9.33144 135.737 9.36364C135.826 9.39394 135.92 9.40909 136.018 9.40909C136.092 9.40909 136.153 9.4053 136.2 9.39773C136.248 9.38826 136.286 9.38068 136.314 9.375L136.45 9.97727C136.405 9.99432 136.341 10.0114 136.26 10.0284C136.179 10.0473 136.075 10.0568 135.95 10.0568C135.761 10.0568 135.575 10.0161 135.393 9.93466C135.214 9.85322 135.064 9.72917 134.945 9.5625C134.827 9.39583 134.768 9.18561 134.768 8.93182V4.59091ZM138.663 10.1023C138.387 10.1023 138.136 10.0502 137.911 9.94602C137.685 9.83996 137.506 9.6875 137.374 9.48864C137.241 9.28788 137.175 9.04545 137.175 8.76136C137.175 8.51136 137.224 8.30871 137.322 8.15341C137.421 7.99621 137.553 7.87311 137.717 7.78409C137.882 7.69508 138.064 7.62879 138.263 7.58523C138.464 7.53977 138.665 7.50379 138.868 7.47727C139.133 7.44318 139.348 7.41761 139.513 7.40057C139.679 7.38163 139.801 7.35038 139.876 7.30682C139.954 7.26326 139.993 7.1875 139.993 7.07955V7.05682C139.993 6.77652 139.916 6.55871 139.763 6.40341C139.611 6.24811 139.381 6.17045 139.072 6.17045C138.752 6.17045 138.501 6.24053 138.32 6.38068C138.138 6.52083 138.01 6.67045 137.936 6.82955L137.3 6.60227C137.413 6.33712 137.565 6.13068 137.754 5.98295C137.946 5.83333 138.154 5.72917 138.379 5.67045C138.607 5.60985 138.83 5.57955 139.05 5.57955C139.19 5.57955 139.351 5.59659 139.533 5.63068C139.716 5.66288 139.893 5.73011 140.064 5.83239C140.236 5.93466 140.379 6.08902 140.493 6.29545C140.607 6.50189 140.663 6.77841 140.663 7.125V10H139.993V9.40909H139.959C139.913 9.50379 139.838 9.60511 139.732 9.71307C139.625 9.82102 139.484 9.91288 139.308 9.98864C139.132 10.0644 138.917 10.1023 138.663 10.1023ZM138.766 9.5C139.031 9.5 139.254 9.44792 139.436 9.34375C139.62 9.23958 139.758 9.10511 139.851 8.94034C139.946 8.77557 139.993 8.60227 139.993 8.42045V7.80682C139.964 7.84091 139.902 7.87216 139.805 7.90057C139.711 7.92708 139.601 7.95076 139.476 7.97159C139.353 7.99053 139.232 8.00758 139.115 8.02273C139 8.03598 138.906 8.04735 138.834 8.05682C138.66 8.07955 138.497 8.11648 138.345 8.16761C138.196 8.21686 138.074 8.29167 137.982 8.39205C137.891 8.49053 137.845 8.625 137.845 8.79545C137.845 9.02841 137.931 9.20455 138.104 9.32386C138.278 9.44129 138.499 9.5 138.766 9.5Z" fill="#D460AF"/>
<rect x="120.5" y="2.5" width="25" height="10" rx="2.5" stroke="#D460AF"/>
<defs>
<clipPath id="clip0_155_9625">
<rect width="115" height="34" fill="white"/>
</clipPath>
</defs>
</svg>
