<svg width="138" height="40" viewBox="0 0 138 40" fill="none" xmlns="http://www.w3.org/2000/svg">
<path fill-rule="evenodd" clip-rule="evenodd" d="M22.2933 16.7422C22.2933 17.563 21.7985 18.0341 20.9348 18.0341V18.0356H19.0089V23.6059C19.0089 24.6667 19.4504 24.803 19.8356 24.803C20.1589 24.803 20.3801 24.7024 20.5427 24.6285L20.5467 24.6267C20.5882 24.6074 20.6237 24.5911 20.6563 24.5778C20.7496 24.5467 20.8356 24.5319 20.9215 24.5319C21.5378 24.5319 21.9689 25.2489 21.9689 25.8919C21.9689 26.24 21.8341 26.6859 21.4548 26.8963C20.96 27.1882 20.2933 27.4874 19.1289 27.4874C16.9793 27.4874 16.0208 26.4148 16.0208 24.0089V14C16.0208 12.9541 16.7719 12.4059 17.5141 12.4059C18.2563 12.4059 19.0074 12.9541 19.0074 14V15.4504H20.9674C21.76 15.4504 22.2933 15.9689 22.2933 16.7422ZM33.8193 23.1852C33.5245 23.1852 33.2311 23.2934 32.9733 23.4978L32.9319 23.5348C32.4104 24 31.8104 24.3526 31.0993 24.6104C30.5674 24.803 30.0474 24.9022 29.5526 24.9022C28.2622 24.9022 27.1763 24.2119 26.6208 23.0489L33.4874 20.5496C34.5689 20.1556 34.7141 19.3556 34.4889 18.7393C33.6504 16.4371 31.6756 15.0059 29.3348 15.0059C28.5719 15.0059 27.7778 15.1541 26.9763 15.4459C25.2163 16.0874 23.9615 17.2415 23.3496 18.7882C22.7956 20.1882 22.8089 21.8356 23.3867 23.4252C24.323 25.9985 26.3141 27.4726 28.8504 27.4726C29.3304 27.4726 29.8326 27.4193 30.3452 27.3126C30.8089 27.2163 31.2385 27.0948 31.6608 26.9422C32.8089 26.5245 33.8563 25.9215 34.6859 25.1971L34.6933 25.1911L34.6993 25.1837C34.9748 24.8711 35.0845 24.4993 35.0089 24.1363C34.8963 23.5941 34.3852 23.1852 33.8193 23.1852ZM27.8415 17.6296C28.2193 17.4919 28.5956 17.4222 28.9585 17.4222C30.2015 17.4222 31.0696 18.2252 31.5008 19.0252L25.9348 21.0504C25.6815 19.8474 26.0311 18.2889 27.8415 17.6296ZM45.3763 16.5734C45.3763 15.7082 46.0193 15.08 46.9037 15.08C47.7704 15.08 48.3304 15.6667 48.3304 16.5748V25.9926C48.3304 26.9141 47.7837 27.4859 46.9037 27.4859C46.1985 27.4859 45.4445 27.0934 45.4445 25.9926V25.7659C44.5882 26.88 43.2267 27.4859 41.5556 27.4859C38.1482 27.4859 35.8578 24.9926 35.8578 21.283C35.8578 17.5734 38.1882 15.08 41.6563 15.08C43.1926 15.08 44.4963 15.6237 45.3763 16.6208V16.5734ZM42.1274 24.8015C44.3496 24.8015 45.3437 23.0341 45.3437 21.283C45.3437 18.8534 43.7452 17.7645 42.1615 17.7659C40.237 17.7659 38.9452 19.1926 38.9452 21.3171C38.9452 23.4015 40.2237 24.8015 42.1274 24.8015ZM60.2963 17.2237C60.9585 15.8563 62.3156 15.08 64.0696 15.08C67.1807 15.08 68.7585 16.9867 68.757 20.7452V25.9585C68.757 26.9289 68.2 27.4859 67.2296 27.4859C66.2667 27.4859 65.7363 26.9437 65.7363 25.9585V20.7452C65.7363 18.563 65.0667 17.6311 63.4963 17.6311C61.8311 17.6311 61.0207 18.6489 61.0207 20.7452V25.9585C61.0207 26.9289 60.4637 27.4859 59.4933 27.4859C58.5304 27.4859 58 26.9437 58 25.9585V20.6785C58 18.5141 57.3511 17.6311 55.76 17.6311C54.1393 17.6311 53.3185 18.5659 53.3185 20.4089V25.9926C53.3185 26.9274 52.7482 27.4859 51.7911 27.4859C50.8282 27.4859 50.2978 26.9556 50.2978 25.9926V16.6415C50.2978 15.563 51.0652 15.08 51.8252 15.08C52.6756 15.08 53.2978 15.6593 53.3185 16.4637C54.0133 15.6 55.1882 15.08 56.5007 15.08C58.2652 15.08 59.5704 15.8193 60.2963 17.2237ZM86.9882 15.08C86.3245 15.08 85.7689 15.5585 85.5037 16.3556L82.9526 23.5615L80.4341 16.3896C80.1615 15.603 79.8148 15.08 79.0163 15.08C78.163 15.08 77.8474 15.5408 77.5645 16.3896L75.0459 23.5615L72.4963 16.3585C72.2296 15.5585 71.6741 15.08 71.0104 15.08C70.3748 15.08 69.7185 15.6015 69.7185 16.4726C69.7185 16.7511 69.7822 17.0296 69.9304 17.4015L73.3615 26.1482C73.6889 26.9511 74.1022 27.4845 75.0459 27.4845C76.0785 27.4845 76.4726 26.7674 76.6993 26.1422L79.0133 19.8326L81.2622 26.1378C81.56 27.0311 82.1274 27.4845 82.9496 27.4845C83.7348 27.4845 84.3126 27.0341 84.6696 26.1452L88.0637 17.3734C88.2104 17.043 88.2785 16.7571 88.2785 16.4726C88.28 15.6785 87.7244 15.08 86.9882 15.08ZM94.6682 15.1141C92.7096 15.1141 91.0859 15.7571 89.9763 16.9748C88.9807 18.0652 88.4326 19.5956 88.4326 21.283C88.4326 22.9734 88.9807 24.5096 89.9763 25.6074C91.0889 26.8356 92.7111 27.4845 94.6696 27.4845C99.2726 27.4845 100.905 24.1437 100.905 21.2815C100.905 18.4371 99.2711 15.1141 94.6682 15.1141ZM94.6682 25.1037C92.6845 25.1037 91.4519 23.64 91.4519 21.283C91.4519 19.003 92.7141 17.5289 94.6682 17.5289C96.6222 17.5289 97.8844 19.003 97.8844 21.283C97.8844 23.6045 96.6222 25.1037 94.6682 25.1037ZM108.201 15.08C107.024 15.08 105.945 15.5748 105.184 16.4534C105.121 15.6859 104.479 15.08 103.695 15.08C102.858 15.08 102.201 15.7363 102.201 16.5734V25.9911C102.201 26.9719 102.953 27.4845 103.695 27.4845C104.437 27.4845 105.188 26.9719 105.188 25.9911V21.5171C105.188 18.8148 105.929 17.6622 107.664 17.6622C107.939 17.6622 108.098 17.6987 108.253 17.7341L108.256 17.7348L108.269 17.7377C108.401 17.7678 108.529 17.7971 108.707 17.7971C109.419 17.7971 109.898 17.2637 109.898 16.4711C109.896 15.6267 109.231 15.08 108.201 15.08ZM120.047 17.92L116.784 21.3141L120.351 24.8815C120.713 25.243 121.067 25.6415 121.067 26.163C121.067 26.8815 120.459 27.4889 119.741 27.4889C119.133 27.4889 118.723 27.0608 118.327 26.6474C118.259 26.5763 118.191 26.5052 118.121 26.4356L114.17 22.3259V25.9941C114.17 26.8178 113.501 27.4874 112.677 27.4874C111.853 27.4874 111.184 26.8178 111.184 25.9941V13.8993C111.184 13.0756 111.853 12.4059 112.677 12.4059C113.501 12.4059 114.17 13.0756 114.17 13.8993V20.0771L118.119 15.9971C118.535 15.5452 118.964 15.08 119.572 15.08C120.347 15.08 120.93 15.6637 120.93 16.4385C120.93 17.0342 120.505 17.4611 120.054 17.9135L120.047 17.92Z" fill="#1D1C39"/>
<path d="M125.418 22.2504C123.973 22.2504 122.798 23.4252 122.798 24.8711C122.798 26.317 123.973 27.4918 125.418 27.4918C126.862 27.4918 128.038 26.317 128.038 24.8711C128.038 23.4252 126.862 22.2504 125.418 22.2504Z" fill="#FF22B1"/>
</svg>
